<?xml version="1.0" encoding="UTF-8"?>
<svg width="128" height="128" viewBox="0 0 128 128" xmlns="http://www.w3.org/2000/svg" xmlns:xlink="http://www.w3.org/1999/xlink">
    <defs>
        <clipPath id="clip-fox">
            <path id="ld" d="
             M20 40
             L20 0 L45 25 
             L83 25 
             L108 0 L108 40 
             L128 40 L113 55 L128 55
             L64 118 
             L0 55 L15 55 L0 40 
             Z"/>
        </clipPath>
    </defs>
    <g clip-path="url(#clip-fox)">
        <use xlink:href="#ld" stroke="black" stroke-width="10" fill="#f63"/>
        
        <!-- Inner Ear Shades -->
        <path d="M24 10 L35 25 Q20 30 24 10" fill="black" opacity="0.6"/>
        <path d="M104 10 L93 25 Q108 30 104 10" fill="black" opacity="0.6"/>

        <!-- Kawaii Eyes -->
        <ellipse cx="48" cy="62" rx="7" ry="9" fill="black"/>
        <circle cx="46" cy="60" r="3" fill="white"/>
        <circle cx="50" cy="64" r="1.2" fill="white"/>
        
        <ellipse cx="80" cy="62" rx="7" ry="9" fill="black"/>
        <circle cx="78" cy="60" r="3" fill="white"/>
        <circle cx="82" cy="64" r="1.2" fill="white"/>

        <!-- Blush -->
        <ellipse cx="36" cy="72" rx="5" ry="2.5" fill="pink" opacity="0.9"/>
        <ellipse cx="92" cy="72" rx="5" ry="2.5" fill="pink" opacity="0.9"/>

        <!-- Nose -->
        <circle cx="64" cy="110" r="12"/>
    </g>
</svg>

